<svg xmlns="http://www.w3.org/2000/svg" width="33.735" height="33.735" viewBox="0 0 33.735 33.735">
  <path id="footer-icon-facebook" d="M16.8,33.735h0Zm.119,0h0Zm-.171,0h0Zm.225,0h0Zm-.275,0h0Zm.329,0h0Zm.054,0h0Zm-.447,0h0Zm.5,0h0Zm-.554,0h0Zm.608,0h0Zm-.658,0h0Zm-.062,0h0Zm.774,0h0Zm-.828,0h0Zm.882,0h0Zm.054,0h0Zm-.986,0h0Zm-.047,0h0Zm1.088,0h0Zm.054,0h0Zm-1.21,0h0Zm-.049,0h0Zm1.314,0h0Zm-1.362,0h0Zm1.416,0h0Zm-1.484,0h0Zm1.538,0h0Zm-1.587,0h0Zm1.641,0h0Zm-1.689,0h0Zm1.743,0h0Zm.054,0h0Zm-1.84,0h0Zm1.894,0h-.011l.027,0Zm-1.966,0,.027,0h-.027Zm-.048,0,.027,0h-.027Zm2.068,0H17.88l.027,0Zm-2.113,0,.024,0h-.024Zm2.167,0h-.022l.024,0h0Zm.054,0H18l.025,0H18Zm-2.29,0,.025,0h-.025Zm-.048,0,.025,0h-.025Zm2.391,0h-.014l.025,0Zm-2.438,0,.023,0h-.023Zm2.492,0h-.018l.023,0Zm-2.556-.005.02,0h-.02Zm2.609,0h0l.02,0Zm.053,0h-.01l.02,0Zm-2.712,0,.02,0h-.02Zm-.048,0h0Zm2.813,0h0Zm-2.866,0h0Zm2.919,0h0Zm.053,0h0Zm-3.029,0h0Zm-.049,0h0Zm3.131,0h0Zm-4.2-.133a16.868,16.868,0,1,1,5.271,0V21.743h3.93l.748-4.876H19.5V13.7a2.438,2.438,0,0,1,2.749-2.634h2.127V6.918A25.938,25.938,0,0,0,20.6,6.589c-3.853,0-6.371,2.335-6.371,6.563v3.716H9.949v4.876h4.283Z" fill="#49639d" fill-rule="evenodd"/>
</svg>
