<svg xmlns="http://www.w3.org/2000/svg" width="33.735" height="33.735" viewBox="0 0 33.735 33.735">
  <path id="footer-icon-youtube" d="M16.868,0A16.868,16.868,0,1,1,0,16.868,16.876,16.876,0,0,1,16.868,0Zm10.1,11.793a2.64,2.64,0,0,0-1.864-1.864c-1.644-.441-8.238-.441-8.238-.441s-6.593,0-8.238.441a2.641,2.641,0,0,0-1.864,1.864,27.446,27.446,0,0,0-.44,5.075,27.443,27.443,0,0,0,.44,5.075A2.641,2.641,0,0,0,8.63,23.807c1.644.44,8.238.44,8.238.44s6.593,0,8.238-.44a2.64,2.64,0,0,0,1.864-1.864,27.443,27.443,0,0,0,.44-5.075,27.446,27.446,0,0,0-.44-5.075Zm-12.21,8.238V13.705l5.478,3.163-5.478,3.163Z" fill="#e0302f" fill-rule="evenodd"/>
</svg>
