<svg xmlns="http://www.w3.org/2000/svg" width="33.735" height="33.735" viewBox="0 0 33.735 33.735">
  <path id="footer-icon-instagram" d="M16.868,0A16.868,16.868,0,1,1,0,16.868,16.876,16.876,0,0,1,16.868,0Zm0,6.325c-2.863,0-3.222.012-4.347.063a7.739,7.739,0,0,0-2.559.49A5.391,5.391,0,0,0,6.879,9.962a7.74,7.74,0,0,0-.49,2.559c-.051,1.124-.063,1.483-.063,4.347s.012,3.222.063,4.347a7.74,7.74,0,0,0,.49,2.559,5.391,5.391,0,0,0,3.083,3.083,7.741,7.741,0,0,0,2.559.49c1.124.051,1.483.063,4.347.063s3.222-.012,4.347-.063a7.74,7.74,0,0,0,2.559-.49,5.391,5.391,0,0,0,3.083-3.083,7.74,7.74,0,0,0,.49-2.559c.051-1.124.063-1.483.063-4.347s-.012-3.222-.063-4.347a7.74,7.74,0,0,0-.49-2.559,5.391,5.391,0,0,0-3.083-3.083,7.738,7.738,0,0,0-2.559-.49C20.09,6.337,19.731,6.325,16.868,6.325Zm0,1.9c2.815,0,3.148.011,4.26.061a5.834,5.834,0,0,1,1.958.363,3.491,3.491,0,0,1,2,2,5.832,5.832,0,0,1,.363,1.958c.051,1.112.061,1.445.061,4.26s-.011,3.148-.061,4.26a5.832,5.832,0,0,1-.363,1.958,3.491,3.491,0,0,1-2,2,5.832,5.832,0,0,1-1.958.363c-1.111.051-1.445.061-4.26.061s-3.148-.011-4.26-.061a5.832,5.832,0,0,1-1.958-.363,3.491,3.491,0,0,1-2-2,5.833,5.833,0,0,1-.363-1.958c-.051-1.112-.061-1.445-.061-4.26s.011-3.148.061-4.26a5.833,5.833,0,0,1,.363-1.958,3.491,3.491,0,0,1,2-2,5.833,5.833,0,0,1,1.958-.363C13.719,8.236,14.053,8.225,16.868,8.225Zm0,3.229a5.414,5.414,0,1,0,5.414,5.414,5.414,5.414,0,0,0-5.414-5.414Zm0,8.928a3.514,3.514,0,1,1,3.514-3.514A3.514,3.514,0,0,1,16.868,20.382ZM23.76,11.24A1.265,1.265,0,1,1,22.5,9.975,1.265,1.265,0,0,1,23.76,11.24Z" fill="#d34d7b" fill-rule="evenodd"/>
</svg>
