<svg xmlns="http://www.w3.org/2000/svg" width="33.735" height="33.735" viewBox="0 0 33.735 33.735">
  <path id="footer-icon-twitter" d="M16.868,0A16.868,16.868,0,1,1,0,16.868,16.876,16.876,0,0,1,16.868,0ZM13.9,25.839A11.468,11.468,0,0,0,25.442,14.294c0-.177,0-.353-.008-.522a8.312,8.312,0,0,0,2.028-2.1,8.235,8.235,0,0,1-2.331.64,4.056,4.056,0,0,0,1.784-2.247,8.218,8.218,0,0,1-2.575.985,4.06,4.06,0,0,0-7.018,2.777,3.72,3.72,0,0,0,.109.926,11.511,11.511,0,0,1-8.364-4.241,4.056,4.056,0,0,0,1.262,5.411,3.986,3.986,0,0,1-1.834-.5v.05a4.062,4.062,0,0,0,3.257,3.98,4.047,4.047,0,0,1-1.069.143,3.87,3.87,0,0,1-.766-.076A4.051,4.051,0,0,0,13.7,22.33a8.156,8.156,0,0,1-5.041,1.734A7.384,7.384,0,0,1,7.695,24a11.306,11.306,0,0,0,6.2,1.834Z" fill="#54a9ee" fill-rule="evenodd"/>
</svg>
