<svg xmlns="http://www.w3.org/2000/svg" width="33.735" height="33.735" viewBox="0 0 33.735 33.735">
  <path id="footer-icon-linkedin" d="M16.868,0A16.868,16.868,0,1,1,0,16.868,16.876,16.876,0,0,1,16.868,0ZM11.594,26.347V13.175H7.215V26.347Zm15.788,0V18.793c0-4.046-2.16-5.928-5.041-5.928A4.349,4.349,0,0,0,18.4,15.04V13.175H14.017c.058,1.236,0,13.173,0,13.173H18.4V18.991a2.993,2.993,0,0,1,.144-1.069,2.4,2.4,0,0,1,2.246-1.6C22.37,16.321,23,17.529,23,19.3v7.048ZM9.434,6.823a2.282,2.282,0,1,0-.058,4.552H9.4a2.283,2.283,0,1,0,.03-4.552Z" fill="#0c66c2" fill-rule="evenodd"/>
</svg>
